<svg xmlns="http://www.w3.org/2000/svg" viewBox="0 0 95.66 74.2"><g id="Layer_2" data-name="Layer 2"><g id="Layer_1-2" data-name="Layer 1"><path d="M57.14,35.94c.36,4-2.41,10.85-8.83,14.09a16.42,16.42,0,0,1-20.22-25c4.41-5.46,11.54-6.88,15.82-5.63-4.11,2.14-6.46,5.36-6.59,10a10.23,10.23,0,0,0,2.51,7.06,10.61,10.61,0,0,0,8.74,3.94A11.1,11.1,0,0,0,57.14,35.94Z"/><path d="M62,4.21A27,27,0,0,1,74,34.53C70.29,48.29,57.82,54.44,49.45,54.4c.21-.12.41-.26.63-.38A21.15,21.15,0,0,0,62,36.44c0-.42,0-.84,0-1.26q0-14.92,0-29.85Z"/><path d="M57.18,1.85V21.37c-5.69-6.15-12.48-8.83-20.57-7.26S23.26,20.67,20.3,28.39c-.77-5.87,1.89-15.85,10-22.37C39.12-1,50.47-1.12,57.18,1.85Z"/><path d="M75.59,71.76h-1.7v-6.2a6.65,6.65,0,0,1,.78-.08c1.51,0,3,0,4.53,0a8.64,8.64,0,0,1,1.24.19,2.78,2.78,0,0,0,.49.08c1.36-.08,2.72-.23,4.08-.26,1.13,0,1.59.47,1.61,1.59,0,1.53,0,3.07,0,4.67H84.79V67.66c0-1.23-.11-1.34-1.35-1.34-2.45,0-2.28-.22-2.28,2.26v3.17H79.31V68.22c0-1.9,0-1.9-1.88-1.9s-1.75,0-1.75,1.78v3.44A1.21,1.21,0,0,1,75.59,71.76Z"/><path d="M89.92,71.83V74.2H88.07V65.58a3.18,3.18,0,0,1,.58-.1c1.73,0,3.45,0,5.18,0,1.29,0,1.81.56,1.83,1.87,0,.89,0,1.79,0,2.68,0,1.24-.55,1.78-1.81,1.8S91.33,71.83,89.92,71.83Zm3.82-3.16V67.16c0-.54-.23-.84-.8-.84-.75,0-1.51,0-2.26,0a.7.7,0,0,0-.8.76c0,1,0,2.07,0,3.1,0,.55.28.81.84.8.73,0,1.46,0,2.18,0s.85-.31.84-.89S93.74,69.14,93.74,68.67Z"/><path d="M44.64,65.48V63.25h1.84v8.48a4.3,4.3,0,0,1-.67.1c-1.67,0-3.33,0-5,0-1.35,0-1.78-.43-1.81-1.75,0-1,0-2.07,0-3.1s.46-1.47,1.52-1.49C41.88,65.45,43.22,65.48,44.64,65.48Zm-3.81,3.19c0,.47,0,.94,0,1.42s.23.89.85.89,1.45,0,2.18,0a.73.73,0,0,0,.85-.8c0-1,0-2.06,0-3.1a.71.71,0,0,0-.8-.76c-.76,0-1.51,0-2.27,0-.56,0-.81.29-.8.84Z"/><path d="M65.28,66.33c-.16-.61.08-.85.56-.85,1.77,0,3.53,0,5.3,0a1.2,1.2,0,0,1,1.27,1.21c0,1.65,0,3.3,0,5a5.13,5.13,0,0,1-.65.1c-1.72,0-3.45,0-5.17,0-1.28,0-1.64-.38-1.67-1.67-.06-2.44.11-2.61,2.56-2.61h2.28c.43,0,.81-.08.82-.61s-.36-.62-.81-.62h-4.5Zm5.3,2.06H68.3c-1.65,0-1.71.06-1.63,1.69v.17a.66.66,0,0,0,.74.72c.81,0,1.63,0,2.44,0,.26,0,.67-.31.7-.53A14.81,14.81,0,0,0,70.58,68.39Z"/><path d="M55.63,69.09H49.92C49.4,70.49,49.71,71,51,71l3.87,0a3.57,3.57,0,0,1,.56.07c.12.56-.12.79-.6.8-1.85,0-3.7,0-5.55,0a1.28,1.28,0,0,1-1.38-1.39c0-1.17,0-2.35,0-3.52a1.3,1.3,0,0,1,1.44-1.41c1.63,0,3.26,0,4.88,0a1.3,1.3,0,0,1,1.42,1.43C55.65,67.59,55.63,68.25,55.63,69.09Zm-2-.91c.46-1.42.17-1.86-1.16-1.86H51c-1.33,0-1.62.45-1.16,1.86Z"/><path d="M33.88,71.83c-.78,0-1.57,0-2.36,0-1,0-1.5-.48-1.53-1.5s0-2.25,0-3.37a1.32,1.32,0,0,1,1.48-1.46q2.4,0,4.8,0c1,0,1.47.49,1.49,1.54s0,2.18,0,3.28-.49,1.45-1.52,1.52H33.88Zm2.06-3.2V67.21c0-.58-.26-.89-.86-.89-.82,0-1.63,0-2.44,0a.75.75,0,0,0-.83.84c0,1,0,2,0,3,0,.54.3.8.85.8h2.44c.57,0,.81-.3.83-.83S35.94,69.14,35.94,68.63Z"/><path d="M28.81,64.07c-1.35,0-2.64,0-3.93,0-.7,0-1,.24-1,1,0,1.62,0,3.25,0,4.87,0,.87.15,1,1.06,1,1.29,0,2.58,0,3.91,0,.26.57.08.9-.57.91-1.65,0-3.31,0-5,0a1.28,1.28,0,0,1-1.4-1.44c0-1.94,0-3.87,0-5.8a1.28,1.28,0,0,1,1.44-1.4c1.6,0,3.21,0,4.81,0C28.74,63.15,29,63.41,28.81,64.07Z"/><path d="M63.86,64.07H60c-1,0-1.07.12-1.08,1.06v4.62c0,1.06.11,1.17,1.15,1.17h3.78s0,0,.11.09c.16.51,0,.81-.63.82-1.65,0-3.31,0-5,0A1.28,1.28,0,0,1,57,70.38c0-1.93,0-3.87,0-5.8a1.28,1.28,0,0,1,1.43-1.41c1.6,0,3.2,0,4.8,0C63.76,63.15,64,63.4,63.86,64.07Z"/><path d="M4.7,66.57c0-.37,0-.67,0-1s0-.55,0-.9H6.2v7.13c-.73,0-1.5,0-2.26,0s-1.74,0-2.61,0S.05,71.41,0,70.52s0-1.74,0-2.61.4-1.32,1.34-1.34S3.49,66.57,4.7,66.57Zm-3.12.77c0,1.16,0,2.23,0,3.31,0,.15.27.4.43.41.85,0,1.7,0,2.61,0V67.34Z"/><path d="M13.82,69.58H9.07c-.36,1.23-.16,1.52.95,1.53,1,0,1.91,0,2.86,0,.24,0,.48,0,.72,0l.11.28c-.22.14-.45.39-.68.4-1.48,0-3,0-4.46,0-.8,0-1.15-.42-1.18-1.24s0-1.84,0-2.77.4-1.21,1.27-1.23q1.93,0,3.87,0a1.14,1.14,0,0,1,1.28,1.24C13.84,68.33,13.82,68.86,13.82,69.58ZM9,68.75H12.3l-.13-1.48H10C8.92,67.28,8.71,67.57,9,68.75Z"/><path d="M21,66.79c-.76,1.55-1.5,3.11-2.3,4.64a1.37,1.37,0,0,1-2,.07c-.81-1.55-1.54-3.14-2.38-4.85H16l2.05,4.2a5.91,5.91,0,0,0,.49-.7c.52-1,1-2.07,1.54-3.09.13-.23.45-.37.68-.56Z"/></g></g></svg>